<mxfile host="Electron" modified="2023-06-26T08:37:22.919Z" agent="Mozilla/5.0 (Windows NT 10.0; Win64; x64) AppleWebKit/537.36 (KHTML, like Gecko) draw.io/21.2.8 Chrome/112.0.5615.165 Electron/24.2.0 Safari/537.36" etag="1jmQsmZcjV3bDkFx5uZ_" version="21.2.8" type="device">
  <diagram name="Page-1" id="3VQA9A3nZ5KF3ZDzDGrZ">
    <mxGraphModel dx="2914" dy="1440" grid="1" gridSize="10" guides="1" tooltips="1" connect="1" arrows="1" fold="1" page="1" pageScale="1" pageWidth="850" pageHeight="1100" math="0" shadow="0">
      <root>
        <mxCell id="0" />
        <mxCell id="1" parent="0" />
        <mxCell id="lkR71Ywda-iTc0acH-Cv-1" value="" style="rounded=0;whiteSpace=wrap;html=1;fillColor=#eeeeee;strokeColor=#36393d;" parent="1" vertex="1">
          <mxGeometry x="190" y="320" width="500" height="1600" as="geometry" />
        </mxCell>
        <mxCell id="lkR71Ywda-iTc0acH-Cv-2" value="&lt;b&gt;&lt;font face=&quot;Georgia&quot; style=&quot;font-size: 15px;&quot;&gt;ADMIN&lt;/font&gt;&lt;/b&gt;" style="shape=umlActor;verticalLabelPosition=bottom;verticalAlign=top;html=1;outlineConnect=0;" parent="1" vertex="1">
          <mxGeometry x="50" y="1050" width="60" height="120" as="geometry" />
        </mxCell>
        <mxCell id="lkR71Ywda-iTc0acH-Cv-7" value="&lt;b&gt;&lt;font style=&quot;font-size: 15px;&quot; face=&quot;Georgia&quot;&gt;USER&lt;/font&gt;&lt;/b&gt;" style="shape=umlActor;verticalLabelPosition=bottom;verticalAlign=top;html=1;outlineConnect=0;" parent="1" vertex="1">
          <mxGeometry x="740" y="1050" width="60" height="120" as="geometry" />
        </mxCell>
        <mxCell id="lkR71Ywda-iTc0acH-Cv-14" value="&lt;font face=&quot;Times New Roman&quot; style=&quot;font-size: 26px; font-style: normal;&quot;&gt;Add Doctor&lt;/font&gt;" style="ellipse;whiteSpace=wrap;html=1;fontStyle=2;fillColor=#dae8fc;strokeColor=#6c8ebf;" parent="1" vertex="1">
          <mxGeometry x="290" y="460" width="270" height="110" as="geometry" />
        </mxCell>
        <mxCell id="lkR71Ywda-iTc0acH-Cv-15" value="&lt;font face=&quot;Times New Roman&quot; style=&quot;font-size: 26px;&quot;&gt;Update Doctor&lt;/font&gt;" style="ellipse;whiteSpace=wrap;html=1;fillColor=#dae8fc;strokeColor=#6c8ebf;" parent="1" vertex="1">
          <mxGeometry x="290" y="620" width="270" height="110" as="geometry" />
        </mxCell>
        <mxCell id="lkR71Ywda-iTc0acH-Cv-16" value="&lt;font face=&quot;Times New Roman&quot; style=&quot;font-size: 26px;&quot;&gt;Delete Doctor&lt;/font&gt;" style="ellipse;whiteSpace=wrap;html=1;fillColor=#dae8fc;strokeColor=#6c8ebf;" parent="1" vertex="1">
          <mxGeometry x="290" y="770" width="270" height="110" as="geometry" />
        </mxCell>
        <mxCell id="lkR71Ywda-iTc0acH-Cv-17" value="&lt;font face=&quot;Times New Roman&quot; style=&quot;font-size: 26px;&quot;&gt;View Doctor&lt;/font&gt;" style="ellipse;whiteSpace=wrap;html=1;fillColor=#fff2cc;strokeColor=#d6b656;" parent="1" vertex="1">
          <mxGeometry x="290" y="920" width="270" height="110" as="geometry" />
        </mxCell>
        <mxCell id="lkR71Ywda-iTc0acH-Cv-18" value="&lt;font face=&quot;Times New Roman&quot; style=&quot;font-size: 26px;&quot;&gt;Search Doctor&lt;/font&gt;" style="ellipse;whiteSpace=wrap;html=1;fillColor=#fff2cc;strokeColor=#d6b656;" parent="1" vertex="1">
          <mxGeometry x="290" y="1070" width="270" height="110" as="geometry" />
        </mxCell>
        <mxCell id="lkR71Ywda-iTc0acH-Cv-20" value="&lt;font face=&quot;Times New Roman&quot; style=&quot;font-size: 26px;&quot;&gt;Rate Doctor&lt;/font&gt;" style="ellipse;whiteSpace=wrap;html=1;fillColor=#f8cecc;strokeColor=#b85450;" parent="1" vertex="1">
          <mxGeometry x="290" y="1230" width="270" height="110" as="geometry" />
        </mxCell>
        <mxCell id="lkR71Ywda-iTc0acH-Cv-21" value="&lt;font face=&quot;Times New Roman&quot; style=&quot;font-size: 26px;&quot;&gt;Book Appointment&lt;/font&gt;" style="ellipse;whiteSpace=wrap;html=1;fillColor=#f8cecc;strokeColor=#b85450;" parent="1" vertex="1">
          <mxGeometry x="290" y="1380" width="270" height="110" as="geometry" />
        </mxCell>
        <mxCell id="lkR71Ywda-iTc0acH-Cv-22" style="edgeStyle=orthogonalEdgeStyle;rounded=0;orthogonalLoop=1;jettySize=auto;html=1;exitX=0.5;exitY=1;exitDx=0;exitDy=0;" parent="1" source="lkR71Ywda-iTc0acH-Cv-1" target="lkR71Ywda-iTc0acH-Cv-1" edge="1">
          <mxGeometry relative="1" as="geometry" />
        </mxCell>
        <mxCell id="lkR71Ywda-iTc0acH-Cv-23" style="edgeStyle=orthogonalEdgeStyle;rounded=0;orthogonalLoop=1;jettySize=auto;html=1;exitX=0.5;exitY=1;exitDx=0;exitDy=0;" parent="1" source="lkR71Ywda-iTc0acH-Cv-1" target="lkR71Ywda-iTc0acH-Cv-1" edge="1">
          <mxGeometry relative="1" as="geometry" />
        </mxCell>
        <mxCell id="lkR71Ywda-iTc0acH-Cv-26" value="" style="endArrow=none;html=1;rounded=0;entryX=0;entryY=0.5;entryDx=0;entryDy=0;" parent="1" target="lkR71Ywda-iTc0acH-Cv-14" edge="1">
          <mxGeometry width="50" height="50" relative="1" as="geometry">
            <mxPoint x="120" y="1100" as="sourcePoint" />
            <mxPoint x="190" y="990" as="targetPoint" />
          </mxGeometry>
        </mxCell>
        <mxCell id="lkR71Ywda-iTc0acH-Cv-28" value="&lt;font face=&quot;Times New Roman&quot; style=&quot;font-size: 26px;&quot;&gt;Cancel Appointment&lt;/font&gt;" style="ellipse;whiteSpace=wrap;html=1;fillColor=#fff2cc;strokeColor=#d6b656;" parent="1" vertex="1">
          <mxGeometry x="290" y="1690" width="270" height="110" as="geometry" />
        </mxCell>
        <mxCell id="lkR71Ywda-iTc0acH-Cv-29" value="&lt;font face=&quot;Times New Roman&quot; style=&quot;font-size: 26px;&quot;&gt;View Appointment&lt;/font&gt;" style="ellipse;whiteSpace=wrap;html=1;fillColor=#fff2cc;strokeColor=#d6b656;" parent="1" vertex="1">
          <mxGeometry x="290" y="1540" width="270" height="110" as="geometry" />
        </mxCell>
        <mxCell id="lkR71Ywda-iTc0acH-Cv-31" value="" style="endArrow=none;html=1;rounded=0;entryX=0;entryY=0.5;entryDx=0;entryDy=0;" parent="1" target="lkR71Ywda-iTc0acH-Cv-15" edge="1">
          <mxGeometry width="50" height="50" relative="1" as="geometry">
            <mxPoint x="120" y="1100" as="sourcePoint" />
            <mxPoint x="170" y="1050" as="targetPoint" />
          </mxGeometry>
        </mxCell>
        <mxCell id="lkR71Ywda-iTc0acH-Cv-32" value="" style="endArrow=none;html=1;rounded=0;entryX=0;entryY=0.5;entryDx=0;entryDy=0;" parent="1" target="lkR71Ywda-iTc0acH-Cv-16" edge="1">
          <mxGeometry width="50" height="50" relative="1" as="geometry">
            <mxPoint x="120" y="1100" as="sourcePoint" />
            <mxPoint x="170" y="1050" as="targetPoint" />
          </mxGeometry>
        </mxCell>
        <mxCell id="lkR71Ywda-iTc0acH-Cv-33" value="" style="endArrow=none;html=1;rounded=0;entryX=0;entryY=0.5;entryDx=0;entryDy=0;" parent="1" target="lkR71Ywda-iTc0acH-Cv-17" edge="1">
          <mxGeometry width="50" height="50" relative="1" as="geometry">
            <mxPoint x="120" y="1100" as="sourcePoint" />
            <mxPoint x="170" y="1050" as="targetPoint" />
          </mxGeometry>
        </mxCell>
        <mxCell id="lkR71Ywda-iTc0acH-Cv-34" value="" style="endArrow=none;html=1;rounded=0;entryX=0;entryY=0.5;entryDx=0;entryDy=0;" parent="1" target="lkR71Ywda-iTc0acH-Cv-18" edge="1">
          <mxGeometry width="50" height="50" relative="1" as="geometry">
            <mxPoint x="120" y="1100" as="sourcePoint" />
            <mxPoint x="180.71067811865476" y="1110" as="targetPoint" />
            <Array as="points" />
          </mxGeometry>
        </mxCell>
        <mxCell id="lkR71Ywda-iTc0acH-Cv-35" value="" style="endArrow=none;html=1;rounded=0;exitX=0;exitY=0.5;exitDx=0;exitDy=0;" parent="1" source="lkR71Ywda-iTc0acH-Cv-29" edge="1">
          <mxGeometry width="50" height="50" relative="1" as="geometry">
            <mxPoint x="140" y="1250" as="sourcePoint" />
            <mxPoint x="120" y="1100" as="targetPoint" />
          </mxGeometry>
        </mxCell>
        <mxCell id="lkR71Ywda-iTc0acH-Cv-36" value="" style="endArrow=none;html=1;rounded=0;exitX=0;exitY=0.5;exitDx=0;exitDy=0;" parent="1" source="lkR71Ywda-iTc0acH-Cv-28" edge="1">
          <mxGeometry width="50" height="50" relative="1" as="geometry">
            <mxPoint x="110" y="1390" as="sourcePoint" />
            <mxPoint x="120" y="1100" as="targetPoint" />
          </mxGeometry>
        </mxCell>
        <mxCell id="lkR71Ywda-iTc0acH-Cv-37" value="" style="endArrow=none;html=1;rounded=0;entryX=1;entryY=0.5;entryDx=0;entryDy=0;" parent="1" target="lkR71Ywda-iTc0acH-Cv-17" edge="1">
          <mxGeometry width="50" height="50" relative="1" as="geometry">
            <mxPoint x="740" y="1100" as="sourcePoint" />
            <mxPoint x="750" y="1040" as="targetPoint" />
          </mxGeometry>
        </mxCell>
        <mxCell id="lkR71Ywda-iTc0acH-Cv-38" value="" style="endArrow=none;html=1;rounded=0;exitX=1;exitY=0.5;exitDx=0;exitDy=0;" parent="1" source="lkR71Ywda-iTc0acH-Cv-18" edge="1">
          <mxGeometry width="50" height="50" relative="1" as="geometry">
            <mxPoint x="680" y="1150" as="sourcePoint" />
            <mxPoint x="740" y="1100" as="targetPoint" />
          </mxGeometry>
        </mxCell>
        <mxCell id="lkR71Ywda-iTc0acH-Cv-40" value="" style="endArrow=none;html=1;rounded=0;exitX=1;exitY=0.5;exitDx=0;exitDy=0;" parent="1" source="lkR71Ywda-iTc0acH-Cv-20" edge="1">
          <mxGeometry width="50" height="50" relative="1" as="geometry">
            <mxPoint x="660" y="1210" as="sourcePoint" />
            <mxPoint x="740" y="1100" as="targetPoint" />
          </mxGeometry>
        </mxCell>
        <mxCell id="lkR71Ywda-iTc0acH-Cv-41" value="" style="endArrow=none;html=1;rounded=0;exitX=1;exitY=0.5;exitDx=0;exitDy=0;" parent="1" source="lkR71Ywda-iTc0acH-Cv-21" edge="1">
          <mxGeometry width="50" height="50" relative="1" as="geometry">
            <mxPoint x="590" y="1440" as="sourcePoint" />
            <mxPoint x="740" y="1100" as="targetPoint" />
          </mxGeometry>
        </mxCell>
        <mxCell id="lkR71Ywda-iTc0acH-Cv-42" value="" style="endArrow=none;html=1;rounded=0;exitX=1;exitY=0.5;exitDx=0;exitDy=0;" parent="1" source="lkR71Ywda-iTc0acH-Cv-29" edge="1">
          <mxGeometry width="50" height="50" relative="1" as="geometry">
            <mxPoint x="580" y="1580" as="sourcePoint" />
            <mxPoint x="740" y="1100" as="targetPoint" />
          </mxGeometry>
        </mxCell>
        <mxCell id="lkR71Ywda-iTc0acH-Cv-43" value="" style="endArrow=none;html=1;rounded=0;exitX=1;exitY=0.5;exitDx=0;exitDy=0;" parent="1" source="lkR71Ywda-iTc0acH-Cv-28" edge="1">
          <mxGeometry width="50" height="50" relative="1" as="geometry">
            <mxPoint x="580" y="1740" as="sourcePoint" />
            <mxPoint x="740" y="1100" as="targetPoint" />
          </mxGeometry>
        </mxCell>
        <mxCell id="ZY27vaJaALnYPTDVeHpE-1" value="&lt;h1&gt;&lt;font style=&quot;font-size: 36px;&quot;&gt;&lt;b style=&quot;&quot;&gt;Doctor&#39;s Listing And Appointment Application&lt;/b&gt;&lt;/font&gt;&lt;/h1&gt;" style="text;html=1;strokeColor=none;fillColor=none;align=center;verticalAlign=middle;whiteSpace=wrap;rounded=0;" parent="1" vertex="1">
          <mxGeometry x="190" y="330" width="500" height="120" as="geometry" />
        </mxCell>
      </root>
    </mxGraphModel>
  </diagram>
</mxfile>
